<?xml version="1.0" encoding="UTF-8"?><svg id="Calque_2" xmlns="http://www.w3.org/2000/svg" viewBox="0 0 583.32 510.54"><g id="Calque_1-2"><path d="m563.32,470.54H54.64l67.46-116.84h350.69c.34,0,.67-.01,1.01-.03.3-.01.6-.03.9-.06.21-.02.42-.05.64-.08.21-.02.42-.05.63-.09.85-.13,1.69-.33,2.53-.58.21-.06.41-.13.62-.2.42-.14.83-.29,1.24-.46.2-.08.41-.17.61-.26.2-.09.4-.19.6-.28.27-.14.54-.27.8-.42.07-.03.14-.07.2-.11.07-.03.14-.07.2-.11.07-.04.15-.09.22-.13,1.46-.87,2.77-1.9,3.92-3.05.2-.2.39-.4.58-.6.03-.03.06-.06.08-.09.22-.24.43-.48.63-.73.42-.5.81-1.03,1.16-1.56.17-.25.33-.5.49-.75.22-.37.43-.75.63-1.13s.39-.77.56-1.16c.09-.2.18-.4.26-.6.25-.59.46-1.2.64-1.82.12-.41.23-.83.32-1.25.05-.19.09-.38.13-.58.04-.22.08-.45.12-.68.03-.21.07-.43.09-.64.03-.21.05-.41.08-.62-.01-.01,0-.01,0-.02.03-.29.05-.58.06-.88.02-.33.03-.67.03-1v-.06c0-.34-.01-.67-.03-1-.01-.3-.03-.61-.06-.91-.01-.07-.02-.15-.03-.23-.02-.23-.05-.46-.09-.69-.05-.39-.12-.78-.2-1.17-.06-.3-.13-.6-.2-.89-.02-.06-.03-.12-.05-.19-.07-.28-.15-.55-.23-.81-.06-.2-.13-.39-.19-.58-.06-.16-.11-.32-.17-.47-.08-.22-.17-.43-.25-.64-.08-.2-.17-.39-.26-.59-.09-.2-.18-.41-.28-.61-.2-.4-.41-.8-.64-1.19l-.22-.37-90.14-156.13c-.11-.19-.22-.38-.33-.57-.36-.61-.75-1.2-1.17-1.75-.14-.19-.29-.38-.44-.57-.45-.56-.93-1.09-1.44-1.6-.23-.23-.46-.45-.69-.66-.24-.22-.48-.43-.73-.63-.56-.48-1.15-.91-1.75-1.3-.07-.04-.14-.09-.21-.13-.66-.43-1.35-.81-2.05-1.15-.04-.02-.08-.04-.13-.06-.22-.1-.44-.2-.67-.3-.31-.14-.64-.27-.98-.39-.2-.08-.4-.15-.6-.21-.19-.07-.38-.13-.57-.18-.04-.01-.07-.03-.11-.04-.18-.05-.37-.1-.56-.15-.2-.05-.41-.11-.62-.15-.41-.1-.84-.19-1.27-.25-.21-.04-.42-.07-.63-.09-.21-.03-.42-.06-.64-.08-.3-.03-.6-.05-.9-.06-.33-.02-.67-.03-1-.03h-146.49l4.51-7.81,2.99-5.18,48.92-84.73,38.43,62.74c3.77,6.16,10.34,9.56,17.07,9.56,3.56,0,7.17-.96,10.43-2.95,9.42-5.77,12.38-18.08,6.61-27.5l-55.64-90.83s-.03-.04-.04-.06l-.32-.53c-.08-.13-.17-.25-.25-.37-.14-.22-.28-.45-.43-.66-.04-.06-.09-.12-.13-.18-.23-.34-.48-.66-.73-.97-.28-.34-.56-.67-.86-.99-.29-.32-.6-.63-.91-.92-.29-.27-.58-.54-.88-.79-.25-.2-.51-.41-.78-.61-.11-.09-.23-.18-.35-.26-.18-.13-.37-.26-.56-.39s-.38-.25-.58-.38c-.19-.12-.39-.23-.59-.35-.2-.11-.39-.22-.59-.33-.25-.13-.5-.26-.74-.37-.15-.08-.3-.15-.45-.21t-.02,0c-.26-.12-.52-.24-.79-.34-.06-.02-.11-.05-.17-.07-.36-.14-.72-.27-1.08-.38-.4-.13-.8-.25-1.2-.35-.38-.1-.75-.18-1.13-.26-.07-.01-.14-.03-.22-.04-.37-.07-.74-.13-1.12-.17-.4-.05-.8-.09-1.2-.12h-.05c-.41-.03-.82-.04-1.23-.04-.43,0-.86.02-1.29.04-.12.01-.25.02-.37.03-.07,0-.13.01-.2.01-.23.03-.47.06-.72.09-.21.02-.42.06-.63.09-.17.03-.34.06-.5.09-.11.02-.22.04-.33.06-.36.08-.71.16-1.06.25-.21.06-.41.12-.62.18-.21.06-.41.12-.62.19-.36.12-.71.25-1.06.39-.34.14-.68.28-1.01.44-.06.02-.12.05-.18.08-.28.13-.56.27-.84.42-.35.19-.69.38-1.03.59-.38.24-.76.48-1.12.74-.37.26-.72.52-1.06.8-.31.25-.62.52-.91.79-.38.35-.75.72-1.11,1.1-.24.25-.47.52-.69.78-.17.22-.35.43-.52.66t-.01.02c-.25.32-.49.66-.72,1-.24.36-.47.73-.69,1.11-.02.02-.03.04-.04.06l-.23.39-68.31,118.34c-.07.1-.13.2-.19.3l-21.83,37.81c-.34.59-.64,1.19-.92,1.8-.11.25-.22.51-.33.76-.3.76-.56,1.53-.76,2.31-.11.42-.21.84-.29,1.27-.03.14-.06.28-.08.42-.02.13-.04.26-.06.4-.06.34-.1.69-.14,1.03-.2,2.01-.1,4.05.32,6.04.07.35.15.7.24,1.05.17.65.37,1.29.61,1.92.07.21.15.41.24.61.23.57.49,1.13.78,1.67.1.2.2.39.31.57.02.05.05.1.08.15.02.03.04.07.06.1.21.35.42.7.65,1.03.24.37.5.73.77,1.08.26.34.53.66.8.98.03.03.06.06.09.1.26.29.53.57.8.85.04.03.08.07.12.11.24.24.48.47.73.69.01,0,.01.01.02.01.1.1.21.19.32.28.27.23.55.46.84.68.31.23.62.46.95.68.02.01.05.03.08.05.35.24.72.46,1.09.68.19.11.39.22.59.33.35.18.7.35,1.05.52.23.1.46.2.69.3.2.08.4.16.6.24,1.05.39,2.13.7,3.24.92.21.04.42.08.63.11.07.02.15.03.22.03.33.06.66.1.99.13.66.07,1.32.1,1.99.1h169.56l67.47,116.85H110.56c-7.15,0-13.75,3.81-17.32,10L2.69,480.54c-3.58,6.19-3.58,13.81,0,20,3.57,6.19,10.17,10,17.32,10h543.32c11.05,0,20-8.95,20-20s-8.95-20-20-20Z"/></g></svg>